<svg width="100" height="100" viewBox="0 0 100 100" fill="none" xmlns="http://www.w3.org/2000/svg">
<rect width="100" height="100" fill="white"/>
<path d="M21.6588 62.1376H18.5004V67.2112C18.5004 67.984 18.618 68.5104 18.8532 68.7904C19.0884 69.0704 19.5364 69.2104 20.1972 69.2104C20.5668 69.2104 21.054 69.1712 21.6588 69.0928V70.0672C21.166 70.1568 20.6228 70.2016 20.0292 70.2016C18.9652 70.2016 18.2428 69.9944 17.862 69.58C17.4924 69.1656 17.3076 68.4432 17.3076 67.4128V62.1376H14.6364V61.2304H16.7532C16.9996 61.2304 17.1676 61.1912 17.2572 61.1128C17.358 61.0232 17.4084 60.8664 17.4084 60.6424V59.1472H18.5004V61.1968H21.6588V62.1376ZM32.0655 60.9952C32.5247 60.9952 32.9727 61.0344 33.4095 61.1128V62.2048C32.7823 62.1376 32.2951 62.104 31.9479 62.104C29.5399 62.104 28.3359 63.5376 28.3359 66.4048V70H27.1263L27.1599 61.1968H28.2519V63.5824C28.5431 62.7536 29.0135 62.1152 29.6631 61.6672C30.3239 61.2192 31.1247 60.9952 32.0655 60.9952ZM43.1653 60.9952C44.6997 60.9952 45.8589 61.2808 46.6429 61.852C47.4269 62.4232 47.8189 63.2352 47.8189 64.288V70H46.7269V67.9168C46.3461 68.6224 45.7245 69.1824 44.8621 69.5968C44.0109 70 42.9749 70.2016 41.7541 70.2016C40.4101 70.2016 39.4133 69.9776 38.7637 69.5296C38.1141 69.0704 37.7893 68.4712 37.7893 67.732C37.7893 66.9368 38.1701 66.3264 38.9317 65.9008C39.7045 65.464 40.8861 65.1952 42.4765 65.0944L46.6093 64.8088V64.0696C46.6093 63.4424 46.3181 62.9216 45.7357 62.5072C45.1645 62.0928 44.3077 61.8856 43.1653 61.8856C42.1909 61.8856 41.3789 62.0424 40.7293 62.356C40.0909 62.6584 39.7045 63.112 39.5701 63.7168H38.4109C38.5341 62.7984 39.0157 62.1152 39.8557 61.6672C40.7069 61.2192 41.8101 60.9952 43.1653 60.9952ZM42.0397 69.3112C43.4733 69.3112 44.5933 69.0256 45.3997 68.4544C46.2061 67.872 46.6093 67.1104 46.6093 66.1696V65.6152L42.6109 65.884C40.2029 66.0296 38.9989 66.6344 38.9989 67.6984C38.9989 68.1688 39.2453 68.5552 39.7381 68.8576C40.2421 69.16 41.0093 69.3112 42.0397 69.3112ZM62.4061 61.1968H63.7333L58.9453 70H57.2317L52.4605 61.1968H53.8045L58.1053 69.328L62.4061 61.1968ZM78.575 65.7664V65.9344H68.9822C69.0606 67.032 69.4974 67.872 70.2926 68.4544C71.099 69.0256 72.1518 69.3112 73.451 69.3112C74.3806 69.3112 75.1702 69.1656 75.8198 68.8744C76.4806 68.5832 76.951 68.1968 77.231 67.7152L78.3734 67.7656C78.0598 68.5272 77.4774 69.1264 76.6262 69.5632C75.7862 69.9888 74.7278 70.2016 73.451 70.2016C71.7038 70.2016 70.3206 69.8096 69.3014 69.0256C68.2822 68.2416 67.7726 67.0992 67.7726 65.5984C67.7726 64.1088 68.2766 62.972 69.2846 62.188C70.3038 61.3928 71.6366 60.9952 73.283 60.9952C74.9742 60.9952 76.279 61.3984 77.1974 62.2048C78.1158 63 78.575 64.1872 78.575 65.7664ZM73.283 61.8856C72.0846 61.8856 71.0934 62.1656 70.3094 62.7256C69.5366 63.2744 69.0998 64.0696 68.999 65.1112H77.3822C77.3486 64.1256 76.9622 63.3416 76.223 62.7592C75.4838 62.1768 74.5038 61.8856 73.283 61.8856ZM84.1085 57.6352H85.3181V70H84.1085V57.6352Z" fill="black"/>
<path d="M19.2884 45.7168C19.428 46.5895 19.9952 47.3312 20.9901 47.9421C21.9849 48.5355 23.4248 48.8322 25.3098 48.8322C26.7235 48.8322 27.9539 48.6839 29.0011 48.3872C30.0483 48.0905 30.5719 47.6367 30.5719 47.0258C30.5719 46.2753 29.6905 45.7081 27.9278 45.3241L21.1733 43.7795C17.5256 42.9417 15.7017 41.2837 15.7017 38.8053C15.7017 36.9901 16.5569 35.6288 18.2673 34.7212C19.9778 33.8136 22.1245 33.3598 24.7076 33.3598C27.4652 33.3598 29.7342 33.8834 31.5144 34.9306C33.3121 35.9604 34.3157 37.4265 34.5251 39.3289L30.0222 39.5121C29.8651 38.7791 29.3153 38.1508 28.3728 37.6272C27.4478 37.1036 26.165 36.8418 24.5244 36.8418C23.3375 36.8418 22.3601 36.9901 21.5922 37.2868C20.8417 37.5835 20.4665 37.9937 20.4665 38.5173C20.4665 39.2503 21.3129 39.8088 23.0059 40.1928L29.2629 41.5542C31.305 42.008 32.8234 42.6188 33.8183 43.3868C34.8306 44.1547 35.3367 45.2368 35.3367 46.6331C35.3367 48.5355 34.4379 49.958 32.6402 50.9004C30.8599 51.8429 28.4165 52.3142 25.3098 52.3142C18.66 52.3142 15.1519 50.1587 14.7854 45.8477L19.2884 45.7168Z" fill="#0056E7"/>
<path d="M40.6915 49.7747C38.5797 48.0817 37.5238 45.7692 37.5238 42.837C37.5238 39.9048 38.5797 37.5923 40.6915 35.8993C42.8034 34.2063 45.7355 33.3598 49.488 33.3598C53.2405 33.3598 56.1639 34.2063 58.2583 35.8993C60.3702 37.5923 61.4261 39.9048 61.4261 42.837C61.4261 45.7692 60.3702 48.0817 58.2583 49.7747C56.1639 51.4677 53.2405 52.3142 49.488 52.3142C45.7355 52.3142 42.8034 51.4677 40.6915 49.7747ZM44.1735 38.7791C42.9168 39.8088 42.2885 41.1615 42.2885 42.837C42.2885 44.5125 42.9168 45.8652 44.1735 46.8949C45.4301 47.9246 47.2016 48.4395 49.488 48.4395C51.7569 48.4395 53.5197 47.9246 54.7764 46.8949C56.033 45.8652 56.6613 44.5125 56.6613 42.837C56.6613 41.1615 56.033 39.8088 54.7764 38.7791C53.5197 37.7494 51.7569 37.2345 49.488 37.2345C47.2016 37.2345 45.4301 37.7494 44.1735 38.7791Z" fill="#D72D20"/>
<path d="M86.4773 52H80.4035L72.9422 44.6172H69.6697V52H64.905V33.674H69.6697V40.9782H72.8899L79.9585 33.674H85.6657L76.6598 42.4967L86.4773 52Z" fill="#FFA600"/>
</svg>
